<?xml version="1.0" encoding="UTF-8"?><svg xmlns="http://www.w3.org/2000/svg" xmlns:xlink="http://www.w3.org/1999/xlink" contentScriptType="text/ecmascript" width="858.75" zoomAndPan="magnify" contentStyleType="text/css" viewBox="0 0 858.75 337.499995" height="337.499995" preserveAspectRatio="xMidYMid meet" version="1.0"><defs><filter x="0%" y="0%" width="100%" xmlns:xlink="http://www.w3.org/1999/xlink" xlink:type="simple" xlink:actuate="onLoad" height="100%" id="filter-remove-color" xlink:show="other"><feColorMatrix values="0 0 0 0 1 0 0 0 0 1 0 0 0 0 1 0 0 0 1 0" color-interpolation-filters="sRGB"/></filter><clipPath id="clip-0"><path d="M 61 159 L 264 159 L 264 270 L 61 270 Z M 61 159 " clip-rule="nonzero"/></clipPath><clipPath id="clip-1"><path d="M 257.402344 280.152344 L 55.144531 262.726562 L 64.917969 149.28125 L 267.179688 166.707031 Z M 257.402344 280.152344 " clip-rule="nonzero"/></clipPath><clipPath id="clip-2"><path d="M 55.425781 262.75 L 257.683594 280.175781 L 267.457031 166.730469 L 65.199219 149.304688 Z M 55.425781 262.75 " clip-rule="nonzero"/></clipPath><clipPath id="clip-3"><path d="M 0.511719 80 L 260 80 L 260 314 L 0.511719 314 Z M 0.511719 80 " clip-rule="nonzero"/></clipPath><mask id="mask-0"><g filter="url(#filter-remove-color)"><rect x="-85.875" width="1030.5" fill="rgb(0%, 0%, 0%)" y="-33.75" height="404.999994" fill-opacity="0.498"/></g></mask><clipPath id="clip-4"><path d="M 0.511719 33 L 242 33 L 242 204 L 0.511719 204 Z M 0.511719 33 " clip-rule="nonzero"/></clipPath><clipPath id="clip-5"><path d="M -38.519531 96.628906 L 205.207031 -0.015625 L 259.328125 136.472656 L 15.601562 233.117188 Z M -38.519531 96.628906 " clip-rule="nonzero"/></clipPath><clipPath id="clip-6"><path d="M 204.878906 0.113281 L -38.847656 96.757812 L 15.273438 233.246094 L 259 136.601562 Z M 204.878906 0.113281 " clip-rule="nonzero"/></clipPath><clipPath id="clip-7"><rect x="0" width="260" y="0" height="234"/></clipPath><clipPath id="clip-8"><path d="M 0.511719 121 L 265 121 L 265 285 L 0.511719 285 Z M 0.511719 121 " clip-rule="nonzero"/></clipPath><mask id="mask-1"><g filter="url(#filter-remove-color)"><rect x="-85.875" width="1030.5" fill="rgb(0%, 0%, 0%)" y="-33.75" height="404.999994" fill-opacity="0.498"/></g></mask><clipPath id="clip-9"><path d="M 0.511719 5 L 262 5 L 262 159 L 0.511719 159 Z M 0.511719 5 " clip-rule="nonzero"/></clipPath><clipPath id="clip-10"><path d="M -10.65625 1.027344 L 264.921875 8.097656 L 260.945312 163.113281 L -14.636719 156.039062 Z M -10.65625 1.027344 " clip-rule="nonzero"/></clipPath><clipPath id="clip-11"><path d="M 264.582031 8.089844 L -10.996094 1.015625 L -14.976562 156.03125 L 260.605469 163.101562 Z M 264.582031 8.089844 " clip-rule="nonzero"/></clipPath><clipPath id="clip-12"><rect x="0" width="265" y="0" height="164"/></clipPath><mask id="mask-2"><g filter="url(#filter-remove-color)"><rect x="-85.875" width="1030.5" fill="rgb(0%, 0%, 0%)" y="-33.75" height="404.999994" fill-opacity="0.498"/></g></mask><clipPath id="clip-13"><path d="M 6 15 L 267 15 L 267 158 L 6 158 Z M 6 15 " clip-rule="nonzero"/></clipPath><clipPath id="clip-14"><path d="M 274.964844 147.792969 L 14.28125 171.746094 L 0.808594 25.113281 L 261.488281 1.160156 Z M 274.964844 147.792969 " clip-rule="nonzero"/></clipPath><clipPath id="clip-15"><path d="M 274.964844 147.792969 L 14.28125 171.746094 L 0.808594 25.113281 L 261.488281 1.160156 Z M 274.964844 147.792969 " clip-rule="nonzero"/></clipPath><clipPath id="clip-16"><rect x="0" width="276" y="0" height="172"/></clipPath><mask id="mask-3"><g filter="url(#filter-remove-color)"><rect x="-85.875" width="1030.5" fill="rgb(0%, 0%, 0%)" y="-33.75" height="404.999994" fill-opacity="0.498"/></g></mask><clipPath id="clip-17"><path d="M 5 15 L 266 15 L 266 158 L 5 158 Z M 5 15 " clip-rule="nonzero"/></clipPath><clipPath id="clip-18"><path d="M 274.34375 147.898438 L 13.664062 171.855469 L 0.1875 25.222656 L 260.867188 1.265625 Z M 274.34375 147.898438 " clip-rule="nonzero"/></clipPath><clipPath id="clip-19"><path d="M 274.34375 147.898438 L 13.664062 171.855469 L 0.1875 25.222656 L 260.867188 1.265625 Z M 274.34375 147.898438 " clip-rule="nonzero"/></clipPath><clipPath id="clip-20"><rect x="0" width="275" y="0" height="173"/></clipPath><mask id="mask-4"><g filter="url(#filter-remove-color)"><rect x="-85.875" width="1030.5" fill="rgb(0%, 0%, 0%)" y="-33.75" height="404.999994" fill-opacity="0.498"/></g></mask><clipPath id="clip-21"><path d="M 6 15 L 266 15 L 266 157 L 6 157 Z M 6 15 " clip-rule="nonzero"/></clipPath><clipPath id="clip-22"><path d="M 274.742188 147.304688 L 14.0625 171.261719 L 0.585938 24.628906 L 261.265625 0.671875 Z M 274.742188 147.304688 " clip-rule="nonzero"/></clipPath><clipPath id="clip-23"><path d="M 274.742188 147.304688 L 14.0625 171.261719 L 0.585938 24.628906 L 261.265625 0.671875 Z M 274.742188 147.304688 " clip-rule="nonzero"/></clipPath><clipPath id="clip-24"><rect x="0" width="275" y="0" height="163"/></clipPath><clipPath id="clip-25"><path d="M 649 153 L 857.988281 153 L 857.988281 325 L 649 325 Z M 649 153 " clip-rule="nonzero"/></clipPath><mask id="mask-5"><g filter="url(#filter-remove-color)"><rect x="-85.875" width="1030.5" fill="rgb(0%, 0%, 0%)" y="-33.75" height="404.999994" fill-opacity="0.498"/></g></mask><clipPath id="clip-26"><path d="M 6 15 L 208.988281 15 L 208.988281 157 L 6 157 Z M 6 15 " clip-rule="nonzero"/></clipPath><clipPath id="clip-27"><path d="M 275.121094 147.414062 L 14.441406 171.371094 L 0.964844 24.738281 L 261.648438 0.78125 Z M 275.121094 147.414062 " clip-rule="nonzero"/></clipPath><clipPath id="clip-28"><path d="M 275.121094 147.414062 L 14.441406 171.371094 L 0.964844 24.738281 L 261.648438 0.78125 Z M 275.121094 147.414062 " clip-rule="nonzero"/></clipPath><clipPath id="clip-29"><rect x="0" width="209" y="0" height="172"/></clipPath><clipPath id="clip-30"><path d="M 636 131 L 857.988281 131 L 857.988281 312 L 636 312 Z M 636 131 " clip-rule="nonzero"/></clipPath><mask id="mask-6"><g filter="url(#filter-remove-color)"><rect x="-85.875" width="1030.5" fill="rgb(0%, 0%, 0%)" y="-33.75" height="404.999994" fill-opacity="0.498"/></g></mask><clipPath id="clip-31"><path d="M 0.289062 1.46875 L 221.988281 1.46875 L 221.988281 180.503906 L 0.289062 180.503906 Z M 0.289062 1.46875 " clip-rule="nonzero"/></clipPath><clipPath id="clip-32"><rect x="0" width="222" y="0" height="181"/></clipPath><clipPath id="clip-33"><path d="M 0.511719 45 L 144 45 L 144 197 L 0.511719 197 Z M 0.511719 45 " clip-rule="nonzero"/></clipPath><clipPath id="clip-34"><path d="M -98.117188 32.648438 L 155.132812 66.703125 L 135.984375 209.101562 L -117.265625 175.046875 Z M -98.117188 32.648438 " clip-rule="nonzero"/></clipPath><clipPath id="clip-35"><path d="M -98.117188 32.648438 L 155.132812 66.703125 L 135.984375 209.101562 L -117.265625 175.046875 Z M -98.117188 32.648438 " clip-rule="nonzero"/></clipPath><clipPath id="clip-36"><path d="M 436 113 L 690 113 L 690 251 L 436 251 Z M 436 113 " clip-rule="nonzero"/></clipPath><clipPath id="clip-37"><path d="M 700.3125 238.449219 L 446.457031 267.652344 L 430.039062 124.914062 L 683.890625 95.710938 Z M 700.3125 238.449219 " clip-rule="nonzero"/></clipPath><clipPath id="clip-38"><path d="M 700.3125 238.449219 L 446.457031 267.652344 L 430.039062 124.914062 L 683.890625 95.710938 Z M 700.3125 238.449219 " clip-rule="nonzero"/></clipPath><clipPath id="clip-39"><path d="M 90 114 L 344 114 L 344 266 L 90 266 Z M 90 114 " clip-rule="nonzero"/></clipPath><clipPath id="clip-40"><path d="M 101.988281 101.613281 L 355.238281 135.667969 L 336.089844 278.066406 L 82.839844 244.011719 Z M 101.988281 101.613281 " clip-rule="nonzero"/></clipPath><clipPath id="clip-41"><path d="M 101.988281 101.613281 L 355.238281 135.667969 L 336.089844 278.066406 L 82.839844 244.011719 Z M 101.988281 101.613281 " clip-rule="nonzero"/></clipPath><clipPath id="clip-42"><path d="M 235 111 L 490 111 L 490 254 L 235 254 Z M 235 111 " clip-rule="nonzero"/></clipPath><clipPath id="clip-43"><path d="M 491.613281 251.699219 L 236.132812 256.542969 L 233.410156 112.886719 L 488.890625 108.046875 Z M 491.613281 251.699219 " clip-rule="nonzero"/></clipPath><clipPath id="clip-44"><path d="M 491.613281 251.699219 L 236.132812 256.542969 L 233.410156 112.886719 L 488.890625 108.046875 Z M 491.613281 251.699219 " clip-rule="nonzero"/></clipPath><clipPath id="clip-45"><path d="M 686 46 L 857.988281 46 L 857.988281 198 L 686 198 Z M 686 46 " clip-rule="nonzero"/></clipPath><clipPath id="clip-46"><path d="M 673.570312 69.226562 L 926.464844 32.636719 L 947.039062 174.835938 L 694.144531 211.425781 Z M 673.570312 69.226562 " clip-rule="nonzero"/></clipPath><clipPath id="clip-47"><path d="M 926.398438 32.648438 L 673.503906 69.238281 L 694.074219 211.4375 L 946.972656 174.847656 Z M 926.398438 32.648438 " clip-rule="nonzero"/></clipPath><clipPath id="clip-48"><path d="M 793 14 L 825 14 L 825 66 L 793 66 Z M 793 14 " clip-rule="nonzero"/></clipPath><clipPath id="clip-49"><path d="M 786.445312 18.324219 L 818.332031 9.972656 L 831.804688 61.425781 L 799.917969 69.773438 Z M 786.445312 18.324219 " clip-rule="nonzero"/></clipPath><clipPath id="clip-50"><path d="M 786.445312 18.324219 L 818.332031 9.972656 L 831.804688 61.425781 L 799.917969 69.773438 Z M 786.445312 18.324219 " clip-rule="nonzero"/></clipPath><clipPath id="clip-51"><path d="M 357 101 L 383 101 L 383 143 L 357 143 Z M 357 101 " clip-rule="nonzero"/></clipPath><clipPath id="clip-52"><path d="M 358.347656 100.695312 L 383.769531 102.242188 L 381.269531 143.367188 L 355.847656 141.820312 Z M 358.347656 100.695312 " clip-rule="nonzero"/></clipPath><clipPath id="clip-53"><path d="M 358.347656 100.695312 L 383.769531 102.242188 L 381.269531 143.367188 L 355.847656 141.820312 Z M 358.347656 100.695312 " clip-rule="nonzero"/></clipPath><clipPath id="clip-54"><path d="M 175 103 L 212 103 L 212 141 L 175 141 Z M 175 103 " clip-rule="nonzero"/></clipPath><clipPath id="clip-55"><path d="M 172.296875 106.996094 L 208.929688 99.1875 L 216.425781 134.351562 L 179.792969 142.160156 Z M 172.296875 106.996094 " clip-rule="nonzero"/></clipPath><clipPath id="clip-56"><path d="M 172.296875 106.996094 L 208.929688 99.1875 L 216.425781 134.351562 L 179.792969 142.160156 Z M 172.296875 106.996094 " clip-rule="nonzero"/></clipPath><clipPath id="clip-57"><path d="M 720 93 L 754 93 L 754 127 L 720 127 Z M 720 93 " clip-rule="nonzero"/></clipPath><clipPath id="clip-58"><path d="M 722.304688 90.710938 L 755.695312 95.363281 L 751.25 127.265625 L 717.863281 122.617188 Z M 722.304688 90.710938 " clip-rule="nonzero"/></clipPath><clipPath id="clip-59"><path d="M 722.304688 90.710938 L 755.695312 95.363281 L 751.25 127.265625 L 717.863281 122.617188 Z M 722.304688 90.710938 " clip-rule="nonzero"/></clipPath><clipPath id="clip-60"><path d="M 32 51 L 74 51 L 74 90 L 32 90 Z M 32 51 " clip-rule="nonzero"/></clipPath><clipPath id="clip-61"><path d="M 36.128906 49.113281 L 75.855469 60.039062 L 66.121094 95.433594 L 26.398438 84.507812 Z M 36.128906 49.113281 " clip-rule="nonzero"/></clipPath><clipPath id="clip-62"><path d="M 36.128906 49.113281 L 75.855469 60.039062 L 66.121094 95.433594 L 26.398438 84.507812 Z M 36.128906 49.113281 " clip-rule="nonzero"/></clipPath><clipPath id="clip-63"><path d="M 567 101 L 599 101 L 599 131 L 567 131 Z M 567 101 " clip-rule="nonzero"/></clipPath><clipPath id="clip-64"><path d="M 566.546875 105.191406 L 597.679688 100.664062 L 601.667969 128.09375 L 570.53125 132.621094 Z M 566.546875 105.191406 " clip-rule="nonzero"/></clipPath><clipPath id="clip-65"><path d="M 566.546875 105.191406 L 597.679688 100.664062 L 601.667969 128.09375 L 570.53125 132.621094 Z M 566.546875 105.191406 " clip-rule="nonzero"/></clipPath><clipPath id="clip-66"><path d="M 0.511719 190 L 136 190 L 136 294 L 0.511719 294 Z M 0.511719 190 " clip-rule="nonzero"/></clipPath><mask id="mask-7"><g filter="url(#filter-remove-color)"><rect x="-85.875" width="1030.5" fill="rgb(0%, 0%, 0%)" y="-33.75" height="404.999994" fill-opacity="0.498"/></g></mask><clipPath id="clip-67"><path d="M 0.511719 6 L 133 6 L 133 98 L 0.511719 98 Z M 0.511719 6 " clip-rule="nonzero"/></clipPath><clipPath id="clip-68"><path d="M -29.359375 15.035156 L 127.332031 1.0625 L 135.183594 89.105469 L -21.507812 103.078125 Z M -29.359375 15.035156 " clip-rule="nonzero"/></clipPath><clipPath id="clip-69"><path d="M 127.519531 1.042969 L -29.171875 15.019531 L -21.320312 103.0625 L 135.371094 89.089844 Z M 127.519531 1.042969 " clip-rule="nonzero"/></clipPath><clipPath id="clip-70"><rect x="0" width="136" y="0" height="104"/></clipPath><mask id="mask-8"><g filter="url(#filter-remove-color)"><rect x="-85.875" width="1030.5" fill="rgb(0%, 0%, 0%)" y="-33.75" height="404.999994" fill-opacity="0.498"/></g></mask><clipPath id="clip-71"><path d="M 14 35 L 157 35 L 157 136 L 14 136 Z M 14 35 " clip-rule="nonzero"/></clipPath><clipPath id="clip-72"><path d="M 41.75 0.355469 L 180.425781 74.632812 L 138.6875 152.554688 L 0.015625 78.277344 Z M 41.75 0.355469 " clip-rule="nonzero"/></clipPath><clipPath id="clip-73"><path d="M 180.589844 74.722656 L 41.914062 0.445312 L 0.179688 78.367188 L 138.851562 152.640625 Z M 180.589844 74.722656 " clip-rule="nonzero"/></clipPath><clipPath id="clip-74"><rect x="0" width="181" y="0" height="153"/></clipPath><clipPath id="clip-75"><path d="M 0.511719 144 L 141 144 L 141 273 L 0.511719 273 Z M 0.511719 144 " clip-rule="nonzero"/></clipPath><clipPath id="clip-76"><path d="M -10.078125 99.664062 L 170.492188 192.4375 L 118.457031 293.714844 L -62.113281 200.941406 Z M -10.078125 99.664062 " clip-rule="nonzero"/></clipPath><clipPath id="clip-77"><path d="M 170.242188 192.308594 L -10.328125 99.535156 L -62.363281 200.816406 L 118.207031 293.585938 Z M 170.242188 192.308594 " clip-rule="nonzero"/></clipPath><clipPath id="clip-78"><path d="M 70 236 L 87 236 L 87 264 L 70 264 Z M 70 236 " clip-rule="nonzero"/></clipPath><clipPath id="clip-79"><path d="M 71.046875 235.328125 L 88.175781 236.722656 L 85.902344 264.664062 L 68.773438 263.269531 Z M 71.046875 235.328125 " clip-rule="nonzero"/></clipPath><clipPath id="clip-80"><path d="M 71.046875 235.328125 L 88.175781 236.722656 L 85.902344 264.664062 L 68.773438 263.269531 Z M 71.046875 235.328125 " clip-rule="nonzero"/></clipPath><clipPath id="clip-81"><path d="M 38 235 L 67 235 L 67 282 L 38 282 Z M 38 235 " clip-rule="nonzero"/></clipPath><clipPath id="clip-82"><path d="M 40.195312 234.296875 L 69.042969 236.644531 L 65.296875 282.617188 L 36.453125 280.265625 Z M 40.195312 234.296875 " clip-rule="nonzero"/></clipPath><clipPath id="clip-83"><path d="M 40.195312 234.296875 L 69.042969 236.644531 L 65.296875 282.617188 L 36.453125 280.265625 Z M 40.195312 234.296875 " clip-rule="nonzero"/></clipPath><clipPath id="clip-84"><path d="M 210 166 L 412 166 L 412 275 L 210 275 Z M 210 166 " clip-rule="nonzero"/></clipPath><clipPath id="clip-85"><path d="M 219.921875 150.617188 L 421.191406 177.140625 L 406.316406 290.027344 L 205.046875 263.503906 Z M 219.921875 150.617188 " clip-rule="nonzero"/></clipPath><clipPath id="clip-86"><path d="M 420.914062 177.101562 L 219.644531 150.578125 L 204.769531 263.46875 L 406.035156 289.992188 Z M 420.914062 177.101562 " clip-rule="nonzero"/></clipPath><clipPath id="clip-87"><path d="M 567 173 L 766 173 L 766 286 L 567 286 Z M 567 173 " clip-rule="nonzero"/></clipPath><clipPath id="clip-88"><path d="M 583.589844 146.792969 L 781.109375 192.496094 L 755.421875 303.507812 L 557.902344 257.804688 Z M 583.589844 146.792969 " clip-rule="nonzero"/></clipPath><clipPath id="clip-89"><path d="M 781.105469 192.496094 L 583.585938 146.789062 L 557.898438 257.800781 L 755.417969 303.507812 Z M 781.105469 192.496094 " clip-rule="nonzero"/></clipPath><clipPath id="clip-90"><path d="M 675 155 L 857.988281 155 L 857.988281 277 L 675 277 Z M 675 155 " clip-rule="nonzero"/></clipPath><clipPath id="clip-91"><path d="M 887.113281 256.339844 L 687.003906 288.894531 L 668.710938 176.425781 L 868.820312 143.875 Z M 887.113281 256.339844 " clip-rule="nonzero"/></clipPath><clipPath id="clip-92"><path d="M 687.007812 288.890625 L 887.117188 256.339844 L 868.824219 143.875 L 668.714844 176.425781 Z M 687.007812 288.890625 " clip-rule="nonzero"/></clipPath><clipPath id="clip-93"><path d="M 434 147 L 620 147 L 620 274 L 434 274 Z M 434 147 " clip-rule="nonzero"/></clipPath><clipPath id="clip-94"><path d="M 585.769531 318.726562 L 404.761719 227.410156 L 456.085938 125.675781 L 637.09375 216.996094 Z M 585.769531 318.726562 " clip-rule="nonzero"/></clipPath><clipPath id="clip-95"><path d="M 404.765625 227.410156 L 585.773438 318.730469 L 637.097656 216.996094 L 456.089844 125.679688 Z M 404.765625 227.410156 " clip-rule="nonzero"/></clipPath><clipPath id="clip-96"><path d="M 827 125 L 857.988281 125 L 857.988281 245 L 827 245 Z M 827 125 " clip-rule="nonzero"/></clipPath><clipPath id="clip-97"><path d="M 819.066406 139.914062 L 1020.441406 116.410156 L 1033.648438 229.589844 L 832.277344 253.089844 Z M 819.066406 139.914062 " clip-rule="nonzero"/></clipPath><clipPath id="clip-98"><path d="M 1020.4375 116.414062 L 819.0625 139.914062 L 832.273438 253.089844 L 1033.644531 229.589844 Z M 1020.4375 116.414062 " clip-rule="nonzero"/></clipPath><mask id="mask-9"><g filter="url(#filter-remove-color)"><rect x="-85.875" width="1030.5" fill="rgb(0%, 0%, 0%)" y="-33.75" height="404.999994" fill-opacity="0.498"/></g></mask><clipPath id="clip-99"><path d="M 1 1.105469 L 247.691406 1.105469 L 247.691406 140.4375 L 1 140.4375 Z M 1 1.105469 " clip-rule="nonzero"/></clipPath><clipPath id="clip-100"><rect x="0" width="248" y="0" height="142"/></clipPath><mask id="mask-10"><g filter="url(#filter-remove-color)"><rect x="-85.875" width="1030.5" fill="rgb(0%, 0%, 0%)" y="-33.75" height="404.999994" fill-opacity="0.498"/></g></mask><clipPath id="clip-101"><path d="M 0.28125 0.125 L 247 0.125 L 247 139.460938 L 0.28125 139.460938 Z M 0.28125 0.125 " clip-rule="nonzero"/></clipPath><clipPath id="clip-102"><rect x="0" width="248" y="0" height="140"/></clipPath><clipPath id="clip-103"><path d="M 672 162 L 702 162 L 702 191 L 672 191 Z M 672 162 " clip-rule="nonzero"/></clipPath><clipPath id="clip-104"><path d="M 671.746094 163.503906 L 700.792969 160.355469 L 703.78125 187.910156 L 674.734375 191.058594 Z M 671.746094 163.503906 " clip-rule="nonzero"/></clipPath><clipPath id="clip-105"><path d="M 671.746094 163.503906 L 700.792969 160.355469 L 703.78125 187.910156 L 674.734375 191.058594 Z M 671.746094 163.503906 " clip-rule="nonzero"/></clipPath><clipPath id="clip-106"><path d="M 672 161 L 702 161 L 702 191 L 672 191 Z M 672 161 " clip-rule="nonzero"/></clipPath><clipPath id="clip-107"><path d="M 671.746094 163.503906 L 700.792969 160.355469 L 703.78125 187.910156 L 674.734375 191.058594 Z M 671.746094 163.503906 " clip-rule="nonzero"/></clipPath><clipPath id="clip-108"><path d="M 671.746094 163.503906 L 700.792969 160.355469 L 703.78125 187.910156 L 674.734375 191.058594 Z M 671.746094 163.503906 " clip-rule="nonzero"/></clipPath><clipPath id="clip-109"><path d="M 564 235 L 577 235 L 577 255 L 564 255 Z M 564 235 " clip-rule="nonzero"/></clipPath><clipPath id="clip-110"><path d="M 566.652344 234.347656 L 578.371094 236.917969 L 574.175781 256.039062 L 562.457031 253.46875 Z M 566.652344 234.347656 " clip-rule="nonzero"/></clipPath><clipPath id="clip-111"><path d="M 566.652344 234.347656 L 578.371094 236.917969 L 574.175781 256.039062 L 562.457031 253.46875 Z M 566.652344 234.347656 " clip-rule="nonzero"/></clipPath><clipPath id="clip-112"><path d="M 542 232 L 562 232 L 562 265 L 542 265 Z M 542 232 " clip-rule="nonzero"/></clipPath><clipPath id="clip-113"><path d="M 545.402344 230.738281 L 565.140625 235.070312 L 558.234375 266.527344 L 538.5 262.195312 Z M 545.402344 230.738281 " clip-rule="nonzero"/></clipPath><clipPath id="clip-114"><path d="M 545.402344 230.738281 L 565.140625 235.070312 L 558.234375 266.527344 L 538.5 262.195312 Z M 545.402344 230.738281 " clip-rule="nonzero"/></clipPath></defs><g clip-path="url(#clip-0)"><g clip-path="url(#clip-1)"><g clip-path="url(#clip-2)"><path fill="rgb(100%, 100%, 100%)" d="M 263.183594 211.507812 C 264.605469 195.039062 252.382812 180.535156 235.886719 179.113281 C 235.308594 179.066406 234.734375 179.015625 234.113281 179.003906 C 230.804688 178.925781 227.574219 179.351562 224.550781 180.289062 C 222.925781 178 221.121094 175.855469 219.136719 173.863281 C 211.425781 166.167969 201.054688 161.011719 189.328125 160 C 179.042969 159.113281 169.21875 161.535156 160.921875 166.40625 C 158.683594 165.429688 156.347656 164.648438 153.957031 164.027344 C 151.363281 163.347656 148.707031 162.914062 145.949219 162.675781 C 137.308594 161.933594 129.007812 163.535156 121.628906 166.910156 C 118.433594 168.375 115.460938 170.1875 112.664062 172.304688 C 107.878906 167.714844 101.554688 164.644531 94.4375 164.03125 C 82.792969 163.027344 72.140625 168.8125 66.367188 178.082031 C 63.960938 181.96875 62.414062 186.429688 61.996094 191.277344 C 60.578125 207.746094 72.800781 222.246094 89.296875 223.667969 C 89.421875 223.679688 89.542969 223.691406 89.667969 223.699219 C 90.726562 247.5 109.238281 267.386719 133.597656 269.484375 C 149.023438 270.8125 163.394531 264.6875 173.09375 254.101562 C 175.691406 254.78125 178.347656 255.214844 181.101562 255.453125 C 197.972656 256.90625 213.53125 249.476562 223.183594 237.066406 C 225.554688 237.933594 228.117188 238.484375 230.75 238.710938 C 246.628906 240.082031 260.695312 228.835938 262.992188 213.269531 C 263.042969 212.695312 263.132812 212.125 263.183594 211.507812 Z M 263.183594 211.507812 " fill-opacity="1" fill-rule="nonzero"/></g></g></g><g clip-path="url(#clip-3)"><g mask="url(#mask-0)"><g transform="matrix(1, 0, 0, 1, 0, 80)"><g id="source-5" clip-path="url(#clip-7)"><g clip-path="url(#clip-4)"><g clip-path="url(#clip-5)"><g clip-path="url(#clip-6)"><path fill="rgb(100%, 100%, 100%)" d="M -5.605469 179.132812 C 2.253906 198.949219 24.734375 208.621094 44.613281 200.738281 C 45.308594 200.464844 46 200.1875 46.726562 199.84375 C 50.59375 198.023438 54.078125 195.671875 57.03125 192.839844 C 60.230469 194.546875 63.550781 195.972656 66.992188 197.125 C 80.335938 201.554688 95.292969 201.515625 109.421875 195.914062 C 121.816406 190.996094 131.773438 182.53125 138.546875 172.125 C 141.695312 171.964844 144.84375 171.515625 147.964844 170.851562 C 151.355469 170.136719 154.675781 169.105469 157.996094 167.789062 C 168.40625 163.660156 177.078125 157.019531 183.652344 148.867188 C 186.5 145.335938 188.890625 141.527344 190.898438 137.472656 C 199.074219 140.007812 208.152344 139.894531 216.726562 136.492188 C 230.757812 130.929688 239.730469 118.109375 241.054688 104.085938 C 241.59375 98.210938 240.808594 92.175781 238.496094 86.347656 C 230.636719 66.53125 208.15625 56.859375 188.277344 64.742188 C 188.128906 64.800781 187.980469 64.859375 187.832031 64.917969 C 172.882812 38.078125 140.03125 25.828125 110.679688 37.46875 C 92.089844 44.839844 79.019531 60.199219 73.917969 78.007812 C 70.527344 78.722656 67.207031 79.753906 63.886719 81.070312 C 43.558594 89.128906 29.867188 106.683594 25.875 126.566406 C 22.636719 126.933594 19.355469 127.777344 16.183594 129.035156 C -2.953125 136.625 -12.722656 157.710938 -6.398438 176.988281 C -6.125 177.679688 -5.898438 178.394531 -5.605469 179.132812 Z M -5.605469 179.132812 " fill-opacity="1" fill-rule="nonzero"/></g></g></g></g></g></g></g><g clip-path="url(#clip-8)"><g mask="url(#mask-1)"><g transform="matrix(1, 0, 0, 1, 0, 121)"><g id="source-8" clip-path="url(#clip-12)"><g clip-path="url(#clip-9)"><g clip-path="url(#clip-10)"><g clip-path="url(#clip-11)"><path fill="rgb(100%, 100%, 100%)" d="M -12.84375 94.8125 C -13.417969 117.320312 4.332031 136.027344 26.808594 136.605469 C 27.59375 136.625 28.378906 136.644531 29.222656 136.609375 C 33.714844 136.445312 38.054688 135.601562 42.078125 134.074219 C 44.46875 137.058594 47.089844 139.820312 49.941406 142.363281 C 61.019531 152.195312 75.503906 158.351562 91.480469 158.761719 C 105.492188 159.121094 118.613281 155.023438 129.457031 147.71875 C 132.570312 148.867188 135.800781 149.734375 139.09375 150.382812 C 142.664062 151.089844 146.300781 151.464844 150.058594 151.5625 C 161.832031 151.863281 172.953125 149.003906 182.679688 143.804688 C 186.886719 141.554688 190.773438 138.847656 194.386719 135.738281 C 201.246094 141.585938 210.074219 145.238281 219.769531 145.488281 C 235.636719 145.894531 249.601562 137.15625 256.667969 124.082031 C 259.613281 118.597656 261.34375 112.410156 261.515625 105.785156 C 262.089844 83.28125 244.339844 64.574219 221.863281 63.996094 C 221.695312 63.992188 221.527344 63.988281 221.359375 63.984375 C 217.980469 31.714844 191.257812 6.207031 158.074219 5.355469 C 137.050781 4.816406 118.070312 14.324219 105.789062 29.511719 C 102.21875 28.800781 98.582031 28.425781 94.824219 28.332031 C 71.84375 27.742188 51.355469 39.121094 39.292969 56.785156 C 36.007812 55.800781 32.488281 55.261719 28.898438 55.167969 C 7.261719 54.613281 -10.886719 71.050781 -12.722656 92.402344 C -12.746094 93.1875 -12.820312 93.972656 -12.84375 94.8125 Z M -12.84375 94.8125 " fill-opacity="1" fill-rule="nonzero"/></g></g></g></g></g></g></g><g mask="url(#mask-2)"><g transform="matrix(1, 0, 0, 1, 291, 115)"><g id="source-11" clip-path="url(#clip-16)"><g clip-path="url(#clip-13)"><g clip-path="url(#clip-14)"><g clip-path="url(#clip-15)"><path fill="rgb(100%, 100%, 100%)" d="M 6.667969 82.984375 C 4.710938 61.699219 20.359375 42.859375 41.621094 40.90625 C 42.363281 40.835938 43.105469 40.769531 43.90625 40.75 C 48.171875 40.625 52.339844 41.152344 56.246094 42.34375 C 58.324219 39.371094 60.632812 36.589844 63.175781 34 C 73.058594 23.988281 86.394531 17.25 101.507812 15.859375 C 114.761719 14.640625 127.449219 17.707031 138.183594 23.949219 C 141.058594 22.664062 144.066406 21.640625 147.144531 20.820312 C 150.484375 19.925781 153.90625 19.34375 157.460938 19.015625 C 168.59375 17.992188 179.3125 20.007812 188.855469 24.324219 C 192.984375 26.191406 196.832031 28.515625 200.453125 31.234375 C 206.585938 25.261719 214.71875 21.25 223.894531 20.40625 C 238.898438 19.027344 252.679688 26.433594 260.195312 38.378906 C 263.328125 43.390625 265.355469 49.148438 265.929688 55.414062 C 267.886719 76.699219 252.238281 95.539062 230.976562 97.492188 C 230.816406 97.507812 230.660156 97.523438 230.5 97.535156 C 229.320312 128.324219 205.597656 154.164062 174.210938 157.050781 C 154.324219 158.878906 135.746094 151.054688 123.160156 137.4375 C 119.820312 138.332031 116.398438 138.914062 112.84375 139.242188 C 91.105469 141.238281 70.984375 131.738281 58.445312 115.757812 C 55.394531 116.894531 52.09375 117.625 48.699219 117.9375 C 28.234375 119.820312 10.007812 105.378906 6.929688 85.265625 C 6.863281 84.519531 6.742188 83.78125 6.667969 82.984375 Z M 6.667969 82.984375 " fill-opacity="1" fill-rule="nonzero"/></g></g></g></g></g></g><g mask="url(#mask-3)"><g transform="matrix(1, 0, 0, 1, 383, 94)"><g id="source-14" clip-path="url(#clip-20)"><g clip-path="url(#clip-17)"><g clip-path="url(#clip-18)"><g clip-path="url(#clip-19)"><path fill="rgb(100%, 100%, 100%)" d="M 6.046875 83.09375 C 4.09375 61.804688 19.738281 42.96875 41 41.015625 C 41.742188 40.945312 42.488281 40.878906 43.285156 40.859375 C 47.554688 40.734375 51.71875 41.261719 55.625 42.453125 C 57.703125 39.480469 60.015625 36.695312 62.558594 34.109375 C 72.4375 24.097656 85.777344 17.359375 100.886719 15.96875 C 114.144531 14.75 126.828125 17.816406 137.5625 24.054688 C 140.441406 22.773438 143.445312 21.75 146.527344 20.929688 C 149.867188 20.035156 153.289062 19.453125 156.839844 19.125 C 167.976562 18.101562 178.695312 20.117188 188.234375 24.433594 C 192.363281 26.300781 196.214844 28.625 199.832031 31.34375 C 205.96875 25.371094 214.101562 21.359375 223.273438 20.515625 C 238.277344 19.136719 252.058594 26.542969 259.574219 38.488281 C 262.707031 43.5 264.734375 49.257812 265.308594 55.519531 C 267.265625 76.808594 251.621094 95.648438 230.355469 97.601562 C 230.199219 97.617188 230.039062 97.628906 229.878906 97.644531 C 228.699219 128.429688 204.980469 154.273438 173.589844 157.160156 C 153.707031 158.988281 135.128906 151.164062 122.539062 137.542969 C 119.199219 138.441406 115.777344 139.023438 112.226562 139.347656 C 90.484375 141.347656 70.363281 131.847656 57.828125 115.867188 C 54.777344 117.003906 51.472656 117.734375 48.082031 118.046875 C 27.613281 119.925781 9.390625 105.488281 6.3125 85.371094 C 6.242188 84.628906 6.121094 83.890625 6.046875 83.09375 Z M 6.046875 83.09375 " fill-opacity="1" fill-rule="nonzero"/></g></g></g></g></g></g><g mask="url(#mask-4)"><g transform="matrix(1, 0, 0, 1, 558, 174)"><g id="source-17" clip-path="url(#clip-24)"><g clip-path="url(#clip-21)"><g clip-path="url(#clip-22)"><g clip-path="url(#clip-23)"><path fill="rgb(100%, 100%, 100%)" d="M 6.449219 82.5 C 4.492188 61.210938 20.136719 42.371094 41.402344 40.417969 C 42.144531 40.351562 42.886719 40.28125 43.683594 40.261719 C 47.953125 40.136719 52.117188 40.664062 56.023438 41.859375 C 58.101562 38.882812 60.414062 36.101562 62.957031 33.511719 C 72.835938 23.503906 86.175781 16.761719 101.285156 15.375 C 114.542969 14.15625 127.230469 17.21875 137.960938 23.460938 C 140.839844 22.179688 143.84375 21.152344 146.925781 20.335938 C 150.265625 19.4375 153.6875 18.855469 157.238281 18.53125 C 168.375 17.507812 179.09375 19.519531 188.632812 23.835938 C 192.761719 25.707031 196.613281 28.027344 200.230469 30.746094 C 206.367188 24.777344 214.5 20.761719 223.671875 19.921875 C 238.675781 18.542969 252.457031 25.949219 259.972656 37.890625 C 263.105469 42.90625 265.132812 48.660156 265.707031 54.925781 C 267.664062 76.214844 252.019531 95.050781 230.757812 97.007812 C 230.597656 97.019531 230.4375 97.035156 230.277344 97.050781 C 229.097656 127.835938 205.378906 153.679688 173.988281 156.5625 C 154.105469 158.390625 135.527344 150.570312 122.9375 136.949219 C 119.597656 137.84375 116.175781 138.425781 112.625 138.753906 C 90.886719 140.75 70.761719 131.25 58.226562 115.269531 C 55.175781 116.40625 51.875 117.140625 48.480469 117.453125 C 28.011719 119.332031 9.789062 104.890625 6.710938 84.777344 C 6.640625 84.035156 6.519531 83.296875 6.449219 82.5 Z M 6.449219 82.5 " fill-opacity="1" fill-rule="nonzero"/></g></g></g></g></g></g><g clip-path="url(#clip-25)"><g mask="url(#mask-5)"><g transform="matrix(1, 0, 0, 1, 649, 153)"><g id="source-20" clip-path="url(#clip-29)"><g clip-path="url(#clip-26)"><g clip-path="url(#clip-27)"><g clip-path="url(#clip-28)"><path fill="rgb(100%, 100%, 100%)" d="M 6.828125 82.609375 C 4.871094 61.320312 20.519531 42.480469 41.78125 40.527344 C 42.523438 40.457031 43.265625 40.390625 44.066406 40.371094 C 48.332031 40.246094 52.496094 40.773438 56.402344 41.96875 C 58.484375 38.992188 60.792969 36.210938 63.335938 33.621094 C 73.21875 23.609375 86.554688 16.871094 101.667969 15.480469 C 114.921875 14.265625 127.609375 17.328125 138.34375 23.570312 C 141.21875 22.289062 144.226562 21.261719 147.304688 20.441406 C 150.644531 19.546875 154.066406 18.964844 157.621094 18.636719 C 168.753906 17.617188 179.472656 19.628906 189.015625 23.945312 C 193.144531 25.8125 196.992188 28.136719 200.609375 30.855469 C 206.746094 24.886719 214.878906 20.871094 224.050781 20.027344 C 239.058594 18.648438 252.839844 26.054688 260.351562 38 C 263.488281 43.011719 265.511719 48.769531 266.089844 55.035156 C 268.046875 76.324219 252.398438 95.160156 231.136719 97.113281 C 230.976562 97.128906 230.816406 97.144531 230.660156 97.160156 C 229.476562 127.945312 205.757812 153.789062 174.367188 156.671875 C 154.484375 158.5 135.90625 150.675781 123.320312 137.058594 C 119.980469 137.953125 116.558594 138.535156 113.003906 138.863281 C 91.265625 140.859375 71.140625 131.359375 58.605469 115.378906 C 55.554688 116.515625 52.253906 117.246094 48.859375 117.558594 C 28.394531 119.441406 10.167969 105 7.089844 84.886719 C 7.023438 84.140625 6.902344 83.402344 6.828125 82.609375 Z M 6.828125 82.609375 " fill-opacity="1" fill-rule="nonzero"/></g></g></g></g></g></g></g><g clip-path="url(#clip-30)"><g mask="url(#mask-6)"><g transform="matrix(1, 0, 0, 1, 636, 131)"><g id="source-23" clip-path="url(#clip-32)"><g clip-path="url(#clip-31)"><path fill="rgb(100%, 100%, 100%)" d="M 317.960938 72.1875 C 317.960938 46.195312 296.914062 25.128906 270.945312 25.128906 C 270.039062 25.128906 269.132812 25.128906 268.164062 25.191406 C 262.980469 25.515625 257.996094 26.617188 253.398438 28.5 C 250.546875 25.128906 247.4375 22.015625 244.070312 19.164062 C 230.992188 8.144531 214.089844 1.46875 195.632812 1.46875 C 179.441406 1.46875 164.417969 6.589844 152.113281 15.339844 C 148.488281 14.109375 144.730469 13.199219 140.910156 12.550781 C 136.765625 11.839844 132.554688 11.515625 128.214844 11.515625 C 114.617188 11.515625 101.859375 15.144531 90.785156 21.433594 C 85.992188 24.15625 81.589844 27.398438 77.507812 31.089844 C 69.414062 24.542969 59.117188 20.589844 47.914062 20.589844 C 29.585938 20.589844 13.722656 31.089844 5.949219 46.390625 C 2.710938 52.804688 0.898438 60 0.898438 67.652344 C 0.898438 93.644531 21.945312 114.710938 47.914062 114.710938 C 48.109375 114.710938 48.304688 114.710938 48.496094 114.710938 C 53.355469 151.855469 84.957031 180.503906 123.292969 180.503906 C 147.578125 180.503906 169.210938 168.964844 182.9375 151.074219 C 187.082031 151.789062 191.292969 152.113281 195.632812 152.113281 C 222.183594 152.113281 245.496094 138.371094 258.902344 117.628906 C 262.722656 118.664062 266.800781 119.183594 270.945312 119.183594 C 295.945312 119.183594 316.410156 99.671875 317.898438 74.976562 C 317.898438 74.066406 317.960938 73.160156 317.960938 72.1875 Z M 317.960938 72.1875 " fill-opacity="1" fill-rule="nonzero"/></g></g></g></g></g><g clip-path="url(#clip-33)"><g clip-path="url(#clip-34)"><g clip-path="url(#clip-35)"><path fill="rgb(100%, 100%, 100%)" d="M 143.027344 152.785156 C 140.246094 173.457031 121.25 187.960938 100.59375 185.183594 C 99.875 185.085938 99.152344 184.988281 98.386719 184.835938 C 94.300781 184.023438 90.453125 182.613281 86.996094 180.625 C 84.367188 183 81.5625 185.144531 78.578125 187.050781 C 66.996094 194.417969 52.835938 197.917969 38.15625 195.945312 C 25.277344 194.214844 13.871094 188.535156 5.019531 180.257812 C 2.003906 180.847656 -1.078125 181.167969 -4.1875 181.277344 C -7.5625 181.398438 -10.945312 181.207031 -14.394531 180.742188 C -25.214844 179.289062 -34.972656 175.035156 -43.109375 168.851562 C -46.628906 166.171875 -49.785156 163.125 -52.636719 159.75 C -59.777344 164.089844 -68.390625 166.132812 -77.300781 164.9375 C -91.878906 162.976562 -103.378906 152.925781 -107.921875 139.925781 C -109.8125 134.476562 -110.484375 128.558594 -109.667969 122.476562 C -106.886719 101.804688 -87.890625 87.296875 -67.234375 90.078125 C -67.082031 90.097656 -66.925781 90.117188 -66.769531 90.136719 C -58.933594 61.117188 -30.734375 41.710938 -0.238281 45.808594 C 19.082031 48.40625 35.050781 59.898438 44.058594 75.597656 C 47.433594 75.472656 50.816406 75.664062 54.265625 76.128906 C 75.386719 78.96875 92.460938 92.394531 100.90625 110.324219 C 104.058594 109.910156 107.359375 109.933594 110.65625 110.375 C 130.539062 113.050781 144.730469 130.757812 143.273438 150.558594 C 143.175781 151.28125 143.128906 152.011719 143.027344 152.785156 Z M 143.027344 152.785156 " fill-opacity="1" fill-rule="nonzero"/></g></g></g><g clip-path="url(#clip-36)"><g clip-path="url(#clip-37)"><g clip-path="url(#clip-38)"><path fill="rgb(100%, 100%, 100%)" d="M 437.046875 181.238281 C 434.660156 160.515625 449.511719 141.789062 470.21875 139.40625 C 470.941406 139.324219 471.664062 139.238281 472.445312 139.203125 C 476.605469 138.984375 480.679688 139.40625 484.519531 140.484375 C 486.484375 137.535156 488.675781 134.769531 491.097656 132.1875 C 500.519531 122.199219 513.382812 115.328125 528.101562 113.632812 C 541.007812 112.148438 553.457031 114.851562 564.070312 120.703125 C 566.851562 119.386719 569.761719 118.320312 572.75 117.453125 C 575.988281 116.503906 579.316406 115.859375 582.773438 115.460938 C 593.617188 114.214844 604.125 115.9375 613.53125 119.933594 C 617.601562 121.664062 621.410156 123.84375 625 126.417969 C 630.855469 120.453125 638.703125 116.355469 647.636719 115.328125 C 662.25 113.648438 675.863281 120.566406 683.460938 132.046875 C 686.632812 136.867188 688.738281 142.4375 689.441406 148.535156 C 691.824219 169.257812 676.972656 187.984375 656.269531 190.367188 C 656.113281 190.386719 655.957031 190.402344 655.804688 190.421875 C 655.335938 220.480469 632.765625 246.21875 602.199219 249.738281 C 582.835938 251.964844 564.53125 244.75 551.941406 231.746094 C 548.703125 232.695312 545.375 233.339844 541.917969 233.738281 C 520.746094 236.171875 500.898438 227.355469 488.304688 212.046875 C 485.355469 213.222656 482.148438 214.011719 478.84375 214.390625 C 458.914062 216.683594 440.804688 203.007812 437.351562 183.453125 C 437.269531 182.730469 437.136719 182.011719 437.046875 181.238281 Z M 437.046875 181.238281 " fill-opacity="1" fill-rule="nonzero"/></g></g></g><g clip-path="url(#clip-39)"><g clip-path="url(#clip-40)"><g clip-path="url(#clip-41)"><path fill="rgb(100%, 100%, 100%)" d="M 343.132812 221.75 C 340.351562 242.421875 321.355469 256.929688 300.699219 254.148438 C 299.980469 254.054688 299.257812 253.957031 298.492188 253.800781 C 294.40625 252.988281 290.558594 251.578125 287.101562 249.59375 C 284.472656 251.96875 281.667969 254.109375 278.683594 256.019531 C 267.101562 263.382812 252.941406 266.886719 238.261719 264.910156 C 225.382812 263.179688 213.980469 257.5 205.128906 249.222656 C 202.109375 249.816406 199.027344 250.136719 195.917969 250.242188 C 192.542969 250.367188 189.160156 250.171875 185.710938 249.710938 C 174.890625 248.253906 165.132812 244.003906 156.996094 237.816406 C 153.476562 235.140625 150.320312 232.089844 147.46875 228.714844 C 140.328125 233.058594 131.714844 235.101562 122.804688 233.902344 C 108.226562 231.941406 96.730469 221.890625 92.183594 208.894531 C 90.292969 203.445312 89.621094 197.527344 90.4375 191.441406 C 93.21875 170.769531 112.214844 156.265625 132.871094 159.042969 C 133.027344 159.0625 133.179688 159.085938 133.335938 159.105469 C 141.171875 130.082031 169.375 110.675781 199.867188 114.777344 C 219.1875 117.375 235.15625 128.863281 244.164062 144.5625 C 247.539062 144.4375 250.921875 144.632812 254.371094 145.09375 C 275.492188 147.9375 292.566406 161.359375 301.011719 179.292969 C 304.164062 178.875 307.464844 178.898438 310.761719 179.34375 C 330.644531 182.015625 344.835938 199.722656 343.378906 219.527344 C 343.28125 220.246094 343.234375 220.976562 343.132812 221.75 Z M 343.132812 221.75 " fill-opacity="1" fill-rule="nonzero"/></g></g></g><g clip-path="url(#clip-42)"><g clip-path="url(#clip-43)"><g clip-path="url(#clip-44)"><path fill="rgb(100%, 100%, 100%)" d="M 235.007812 169.621094 C 234.613281 148.765625 251.183594 131.542969 272.023438 131.148438 C 272.75 131.132812 273.476562 131.121094 274.257812 131.15625 C 278.421875 131.339844 282.4375 132.144531 286.15625 133.585938 C 288.390625 130.835938 290.839844 128.292969 293.496094 125.953125 C 303.828125 116.914062 317.289062 111.296875 332.101562 111.015625 C 345.09375 110.769531 357.226562 114.652344 367.234375 121.484375 C 370.125 120.441406 373.125 119.65625 376.179688 119.078125 C 379.496094 118.445312 382.871094 118.121094 386.351562 118.054688 C 397.265625 117.847656 407.558594 120.566406 416.539062 125.441406 C 420.425781 127.554688 424.007812 130.085938 427.339844 132.988281 C 433.734375 127.613281 441.9375 124.285156 450.929688 124.113281 C 465.636719 123.835938 478.527344 132.019531 484.996094 144.175781 C 487.691406 149.273438 489.257812 155.019531 489.371094 161.160156 C 489.769531 182.015625 473.199219 199.238281 452.359375 199.632812 C 452.203125 199.636719 452.046875 199.640625 451.890625 199.640625 C 448.558594 229.519531 423.636719 252.988281 392.871094 253.570312 C 373.382812 253.941406 355.851562 245.011719 344.5625 230.867188 C 341.246094 231.5 337.875 231.824219 334.390625 231.890625 C 313.085938 232.292969 294.167969 221.621094 283.09375 205.183594 C 280.042969 206.074219 276.777344 206.550781 273.453125 206.613281 C 253.394531 206.996094 236.675781 191.652344 235.105469 171.859375 C 235.089844 171.128906 235.023438 170.402344 235.007812 169.621094 Z M 235.007812 169.621094 " fill-opacity="1" fill-rule="nonzero"/></g></g></g><g clip-path="url(#clip-45)"><g clip-path="url(#clip-46)"><g clip-path="url(#clip-47)"><path fill="rgb(100%, 100%, 100%)" d="M 686.46875 155.191406 C 689.457031 175.835938 708.59375 190.152344 729.222656 187.164062 C 729.941406 187.0625 730.664062 186.957031 731.425781 186.792969 C 735.503906 185.941406 739.339844 184.492188 742.777344 182.472656 C 745.425781 184.820312 748.253906 186.9375 751.257812 188.8125 C 762.914062 196.0625 777.105469 199.421875 791.769531 197.300781 C 804.628906 195.441406 815.972656 189.648438 824.742188 181.28125 C 827.765625 181.84375 830.851562 182.132812 833.960938 182.210938 C 837.335938 182.300781 840.71875 182.074219 844.164062 181.574219 C 854.964844 180.011719 864.683594 175.660156 872.757812 169.394531 C 876.25 166.683594 879.375 163.601562 882.191406 160.199219 C 889.375 164.46875 898.007812 166.425781 906.90625 165.136719 C 921.464844 163.03125 932.863281 152.867188 937.277344 139.824219 C 939.113281 134.355469 939.726562 128.433594 938.847656 122.355469 C 935.859375 101.710938 916.71875 87.398438 896.09375 90.382812 C 895.9375 90.40625 895.785156 90.425781 895.628906 90.449219 C 887.503906 61.507812 859.105469 42.382812 828.652344 46.789062 C 809.363281 49.582031 793.507812 61.230469 784.660156 77.019531 C 781.285156 76.929688 777.902344 77.152344 774.457031 77.652344 C 753.367188 80.703125 736.425781 94.296875 728.160156 112.3125 C 725.007812 111.929688 721.707031 111.984375 718.414062 112.460938 C 698.558594 115.335938 684.546875 133.183594 686.199219 152.96875 C 686.304688 153.691406 686.355469 154.417969 686.46875 155.191406 Z M 686.46875 155.191406 " fill-opacity="1" fill-rule="nonzero"/></g></g></g><g clip-path="url(#clip-48)"><g clip-path="url(#clip-49)"><g clip-path="url(#clip-50)"><path fill="rgb(100%, 94.898987%, 78.039551%)" d="M 801.796875 15.03125 C 801.402344 32.796875 795.679688 40.945312 793.554688 43.394531 C 793.21875 43.773438 793.359375 44.316406 793.839844 44.484375 C 796.835938 45.542969 805.828125 49.886719 814.925781 65.167969 C 815.273438 65.753906 816.179688 65.515625 816.195312 64.832031 C 816.496094 47.089844 822.492188 38.871094 824.707031 36.402344 C 825.042969 36.019531 824.890625 35.429688 824.410156 35.265625 C 821.28125 34.242188 812.011719 29.972656 803.054688 14.652344 C 802.707031 14.066406 801.796875 14.304688 801.796875 15.03125 Z M 801.796875 15.03125 " fill-opacity="1" fill-rule="nonzero"/></g></g></g><g clip-path="url(#clip-51)"><g clip-path="url(#clip-52)"><g clip-path="url(#clip-53)"><path fill="rgb(100%, 94.898987%, 78.039551%)" d="M 370.410156 101.976562 C 365.84375 114.960938 359.675781 119.574219 357.527344 120.867188 C 357.1875 121.0625 357.160156 121.5 357.472656 121.738281 C 359.417969 123.238281 364.976562 128.605469 367.972656 142.046875 C 368.085938 142.566406 368.8125 142.609375 368.988281 142.109375 C 373.480469 129.121094 379.863281 124.519531 382.085938 123.234375 C 382.425781 123.035156 382.453125 122.5625 382.140625 122.324219 C 380.089844 120.816406 374.3125 115.4375 371.425781 102 C 371.3125 101.484375 370.585938 101.441406 370.410156 101.976562 Z M 370.410156 101.976562 " fill-opacity="1" fill-rule="nonzero"/></g></g></g><g clip-path="url(#clip-54)"><g clip-path="url(#clip-55)"><g clip-path="url(#clip-56)"><path fill="rgb(77.249146%, 67.83905%, 92.158508%)" d="M 190.683594 103.191406 L 198.78125 113.527344 L 211.785156 112.691406 L 204.574219 123.621094 L 209.4375 135.84375 L 196.878906 132.261719 L 186.867188 140.652344 L 186.320312 127.515625 L 175.28125 120.46875 L 187.5 115.933594 Z M 190.683594 103.191406 " fill-opacity="1" fill-rule="nonzero"/><path fill="rgb(77.249146%, 67.83905%, 92.158508%)" d="M 190.574219 103.097656 L 198.675781 113.433594 L 211.683594 112.597656 L 204.46875 123.527344 L 209.328125 135.75 L 196.769531 132.167969 L 186.765625 140.558594 L 186.214844 127.421875 L 175.171875 120.378906 L 187.386719 115.839844 Z M 190.574219 103.097656 " fill-opacity="1" fill-rule="nonzero"/><path fill="rgb(77.249146%, 67.83905%, 92.158508%)" d="M 190.574219 103.097656 L 198.675781 113.433594 L 211.683594 112.597656 L 204.46875 123.527344 L 209.328125 135.75 L 196.769531 132.167969 L 186.765625 140.558594 L 186.214844 127.421875 L 175.171875 120.378906 L 187.386719 115.839844 Z M 190.574219 103.097656 " fill-opacity="1" fill-rule="nonzero"/><path fill="rgb(77.249146%, 67.83905%, 92.158508%)" d="M 190.574219 103.097656 L 198.675781 113.433594 L 211.683594 112.597656 L 204.46875 123.527344 L 209.328125 135.75 L 196.769531 132.167969 L 186.765625 140.558594 L 186.214844 127.421875 L 175.171875 120.378906 L 187.386719 115.839844 Z M 190.574219 103.097656 " fill-opacity="1" fill-rule="nonzero"/></g></g></g><g clip-path="url(#clip-57)"><g clip-path="url(#clip-58)"><g clip-path="url(#clip-59)"><path fill="rgb(77.249146%, 67.83905%, 92.158508%)" d="M 739.027344 93.144531 L 742.710938 104.328125 L 753.976562 107.605469 L 744.519531 114.601562 L 744.886719 126.378906 L 735.355469 119.515625 L 724.308594 123.515625 L 727.875 112.285156 L 720.695312 102.972656 L 732.425781 102.894531 Z M 739.027344 93.144531 " fill-opacity="1" fill-rule="nonzero"/><path fill="rgb(77.249146%, 67.83905%, 92.158508%)" d="M 738.964844 93.03125 L 742.652344 104.214844 L 753.914062 107.496094 L 744.457031 114.492188 L 744.820312 126.269531 L 735.292969 119.40625 L 724.25 123.402344 L 727.816406 112.171875 L 720.628906 102.859375 L 732.359375 102.78125 Z M 738.964844 93.03125 " fill-opacity="1" fill-rule="nonzero"/><path fill="rgb(77.249146%, 67.83905%, 92.158508%)" d="M 738.964844 93.03125 L 742.652344 104.214844 L 753.914062 107.496094 L 744.457031 114.492188 L 744.820312 126.269531 L 735.292969 119.40625 L 724.25 123.402344 L 727.816406 112.171875 L 720.628906 102.859375 L 732.359375 102.78125 Z M 738.964844 93.03125 " fill-opacity="1" fill-rule="nonzero"/><path fill="rgb(77.249146%, 67.83905%, 92.158508%)" d="M 738.964844 93.03125 L 742.652344 104.214844 L 753.914062 107.496094 L 744.457031 114.492188 L 744.820312 126.269531 L 735.292969 119.40625 L 724.25 123.402344 L 727.816406 112.171875 L 720.628906 102.859375 L 732.359375 102.78125 Z M 738.964844 93.03125 " fill-opacity="1" fill-rule="nonzero"/></g></g></g><g clip-path="url(#clip-60)"><g clip-path="url(#clip-61)"><g clip-path="url(#clip-62)"><path fill="rgb(98.039246%, 56.858826%, 83.139038%)" d="M 72.648438 70.820312 C 74.300781 64.808594 70.789062 58.605469 64.808594 56.960938 C 61.175781 55.960938 57.476562 56.878906 54.75 59.089844 C 53.542969 55.796875 50.832031 53.117188 47.199219 52.117188 C 41.214844 50.472656 35.027344 54.007812 33.375 60.019531 C 33.140625 60.871094 33.019531 61.722656 32.984375 62.570312 C 31.910156 72.371094 39.578125 85.128906 46.28125 89.898438 C 54.476562 89.226562 67.59375 82.183594 71.675781 73.210938 C 72.082031 72.46875 72.414062 71.671875 72.648438 70.820312 Z M 72.648438 70.820312 " fill-opacity="1" fill-rule="nonzero"/></g></g></g><g clip-path="url(#clip-63)"><g clip-path="url(#clip-64)"><g clip-path="url(#clip-65)"><path fill="rgb(98.039246%, 56.858826%, 83.139038%)" d="M 598.726562 109.09375 C 598.050781 104.4375 593.699219 101.214844 589.007812 101.894531 C 586.164062 102.308594 583.851562 104.070312 582.621094 106.425781 C 580.769531 104.515625 578.054688 103.488281 575.210938 103.902344 C 570.519531 104.582031 567.265625 108.910156 567.941406 113.566406 C 568.039062 114.226562 568.214844 114.855469 568.449219 115.449219 C 570.6875 122.550781 579.945312 129.042969 586.089844 130.300781 C 591.621094 127.34375 598.652344 118.488281 598.773438 111.042969 C 598.832031 110.40625 598.820312 109.753906 598.726562 109.09375 Z M 598.726562 109.09375 " fill-opacity="1" fill-rule="nonzero"/></g></g></g><g clip-path="url(#clip-66)"><g mask="url(#mask-7)"><g transform="matrix(1, 0, 0, 1, 0, 190)"><g id="source-26" clip-path="url(#clip-70)"><g clip-path="url(#clip-67)"><g clip-path="url(#clip-68)"><g clip-path="url(#clip-69)"><path fill="rgb(100%, 100%, 100%)" d="M -24.101562 68.257812 C -22.960938 81.039062 -11.679688 90.476562 1.101562 89.335938 C 1.546875 89.296875 1.996094 89.257812 2.46875 89.183594 C 5.003906 88.796875 7.410156 88.035156 9.59375 86.90625 C 11.140625 88.441406 12.808594 89.835938 14.589844 91.089844 C 21.511719 95.933594 30.125 98.476562 39.207031 97.664062 C 47.175781 96.953125 54.347656 93.777344 60.019531 88.933594 C 61.859375 89.378906 63.746094 89.660156 65.65625 89.8125 C 67.726562 89.980469 69.8125 89.957031 71.949219 89.765625 C 78.640625 89.167969 84.761719 86.824219 89.9375 83.246094 C 92.175781 81.695312 94.199219 79.910156 96.046875 77.914062 C 100.316406 80.777344 105.558594 82.269531 111.074219 81.777344 C 120.09375 80.972656 127.441406 75.113281 130.59375 67.25 C 131.90625 63.949219 132.484375 60.332031 132.148438 56.570312 C 131.007812 43.789062 119.726562 34.351562 106.945312 35.492188 C 106.847656 35.5 106.753906 35.507812 106.65625 35.519531 C 102.640625 17.464844 85.828125 4.761719 66.960938 6.445312 C 55.007812 7.511719 44.867188 14.132812 38.894531 23.535156 C 36.824219 23.367188 34.738281 23.390625 32.601562 23.582031 C 19.535156 24.746094 8.664062 32.527344 2.972656 43.316406 C 1.046875 42.976562 -0.984375 42.898438 -3.023438 43.082031 C -15.324219 44.179688 -24.542969 54.671875 -24.191406 66.882812 C -24.152344 67.328125 -24.144531 67.777344 -24.101562 68.257812 Z M -24.101562 68.257812 " fill-opacity="1" fill-rule="nonzero"/></g></g></g></g></g></g></g><g mask="url(#mask-8)"><g transform="matrix(1, 0, 0, 1, 84, 143)"><g id="source-29" clip-path="url(#clip-74)"><g clip-path="url(#clip-71)"><g clip-path="url(#clip-72)"><g clip-path="url(#clip-73)"><path fill="rgb(100%, 100%, 100%)" d="M 16.949219 47.738281 C 10.890625 59.050781 15.144531 73.128906 26.457031 79.191406 C 26.851562 79.402344 27.246094 79.613281 27.683594 79.8125 C 30.015625 80.878906 32.445312 81.5625 34.886719 81.816406 C 35.34375 83.949219 35.972656 86.027344 36.773438 88.054688 C 39.902344 95.902344 45.707031 102.753906 53.746094 107.058594 C 60.800781 110.835938 68.539062 112.113281 75.9375 111.175781 C 77.230469 112.554688 78.65625 113.828125 80.167969 115 C 81.808594 116.277344 83.566406 117.402344 85.453125 118.414062 C 91.378906 121.585938 97.78125 122.984375 104.070312 122.832031 C 106.792969 122.761719 109.46875 122.378906 112.105469 121.722656 C 114.105469 126.460938 117.667969 130.585938 122.546875 133.199219 C 130.53125 137.476562 139.890625 136.605469 146.839844 131.761719 C 149.746094 129.722656 152.214844 127.015625 154 123.6875 C 160.058594 112.375 155.800781 98.292969 144.488281 92.234375 C 144.40625 92.191406 144.320312 92.144531 144.234375 92.101562 C 150.777344 74.800781 143.691406 54.957031 126.992188 46.015625 C 116.414062 40.347656 104.304688 40.324219 94.152344 44.90625 C 92.511719 43.628906 90.753906 42.507812 88.867188 41.492188 C 77.300781 35.300781 63.941406 35.839844 53.265625 41.742188 C 51.84375 40.398438 50.1875 39.222656 48.382812 38.253906 C 37.496094 32.421875 24.03125 36.140625 17.625 46.539062 C 17.414062 46.933594 17.175781 47.316406 16.949219 47.738281 Z M 16.949219 47.738281 " fill-opacity="1" fill-rule="nonzero"/></g></g></g></g></g></g><g clip-path="url(#clip-75)"><g clip-path="url(#clip-76)"><g clip-path="url(#clip-77)"><path fill="rgb(100%, 100%, 100%)" d="M -41.441406 160.996094 C -48.996094 175.703125 -43.183594 193.753906 -28.453125 201.320312 C -27.9375 201.585938 -27.425781 201.847656 -26.855469 202.09375 C -23.824219 203.421875 -20.675781 204.25 -17.519531 204.527344 C -16.882812 207.265625 -16.023438 209.929688 -14.941406 212.523438 C -10.726562 222.570312 -3.082031 231.273438 7.386719 236.652344 C 16.570312 241.371094 26.582031 242.851562 36.101562 241.488281 C 37.800781 243.238281 39.667969 244.847656 41.648438 246.328125 C 43.789062 247.9375 46.085938 249.347656 48.546875 250.613281 C 56.257812 254.578125 64.550781 256.242188 72.65625 255.910156 C 76.167969 255.765625 79.605469 255.21875 82.996094 254.316406 C 85.683594 260.378906 90.375 265.617188 96.730469 268.878906 C 107.125 274.222656 119.175781 272.90625 128.027344 266.515625 C 131.730469 263.828125 134.851562 260.285156 137.074219 255.960938 C 144.628906 241.253906 138.8125 223.207031 124.085938 215.636719 C 123.972656 215.582031 123.863281 215.523438 123.753906 215.46875 C 131.792969 193.042969 122.195312 167.625 100.453125 156.453125 C 86.675781 149.375 71.054688 149.597656 58.070312 155.71875 C 55.925781 154.109375 53.632812 152.699219 51.171875 151.433594 C 36.113281 143.695312 18.894531 144.675781 5.261719 152.503906 C 3.398438 150.804688 1.234375 149.320312 -1.117188 148.113281 C -15.296875 140.828125 -32.574219 145.902344 -40.59375 159.441406 C -40.859375 159.953125 -41.160156 160.449219 -41.441406 160.996094 Z M -41.441406 160.996094 " fill-opacity="1" fill-rule="nonzero"/></g></g></g><g clip-path="url(#clip-78)"><g clip-path="url(#clip-79)"><g clip-path="url(#clip-80)"><path fill="rgb(100%, 94.898987%, 78.039551%)" d="M 79.167969 236.359375 C 75.898438 245.132812 71.675781 248.1875 70.207031 249.039062 C 69.976562 249.167969 69.953125 249.464844 70.160156 249.628906 C 71.449219 250.679688 75.121094 254.402344 76.949219 263.589844 C 77.019531 263.941406 77.507812 263.980469 77.632812 263.644531 C 80.851562 254.871094 85.222656 251.824219 86.738281 250.980469 C 86.96875 250.847656 86.996094 250.527344 86.789062 250.363281 C 85.425781 249.308594 81.605469 245.570312 79.851562 236.390625 C 79.78125 236.039062 79.292969 236 79.167969 236.359375 Z M 79.167969 236.359375 " fill-opacity="1" fill-rule="nonzero"/></g></g></g><g clip-path="url(#clip-81)"><g clip-path="url(#clip-82)"><g clip-path="url(#clip-83)"><path fill="rgb(100%, 94.898987%, 78.039551%)" d="M 53.871094 236.023438 C 48.398438 250.441406 41.292969 255.460938 38.824219 256.851562 C 38.433594 257.066406 38.394531 257.550781 38.746094 257.824219 C 40.917969 259.554688 47.113281 265.695312 50.222656 280.816406 C 50.339844 281.398438 51.164062 281.464844 51.371094 280.910156 C 56.765625 266.480469 64.113281 261.484375 66.667969 260.101562 C 67.054688 259.886719 67.097656 259.359375 66.75 259.085938 C 64.453125 257.347656 58.007812 251.183594 55.023438 236.074219 C 54.90625 235.492188 54.085938 235.425781 53.871094 236.023438 Z M 53.871094 236.023438 " fill-opacity="1" fill-rule="nonzero"/></g></g></g><g clip-path="url(#clip-84)"><g clip-path="url(#clip-85)"><g clip-path="url(#clip-86)"><path fill="rgb(100%, 100%, 100%)" d="M 211.054688 218.929688 C 208.894531 235.320312 220.449219 250.355469 236.867188 252.519531 C 237.441406 252.597656 238.015625 252.671875 238.632812 252.710938 C 241.933594 252.9375 245.179688 252.660156 248.242188 251.855469 C 249.765625 254.21875 251.46875 256.441406 253.363281 258.519531 C 260.71875 266.558594 270.847656 272.175781 282.515625 273.714844 C 292.75 275.0625 302.675781 273.085938 311.179688 268.59375 C 313.371094 269.671875 315.671875 270.554688 318.03125 271.285156 C 320.59375 272.078125 323.226562 272.632812 325.972656 272.996094 C 334.570312 274.128906 342.9375 272.902344 350.457031 269.859375 C 353.714844 268.542969 356.769531 266.867188 359.65625 264.875 C 364.226562 269.679688 370.410156 273.03125 377.492188 273.964844 C 389.078125 275.488281 399.980469 270.191406 406.164062 261.191406 C 408.746094 257.414062 410.492188 253.03125 411.125 248.207031 C 413.285156 231.816406 401.730469 216.78125 385.3125 214.617188 C 385.191406 214.601562 385.066406 214.585938 384.945312 214.566406 C 384.960938 190.742188 367.363281 170.046875 343.125 166.851562 C 327.769531 164.828125 313.136719 170.300781 302.972656 180.4375 C 300.410156 179.644531 297.777344 179.089844 295.035156 178.726562 C 278.246094 176.515625 262.367188 183.238281 252.167969 195.199219 C 249.839844 194.226562 247.304688 193.558594 244.683594 193.214844 C 228.878906 191.132812 214.320312 201.730469 211.328125 217.179688 C 211.25 217.75 211.136719 218.316406 211.054688 218.929688 Z M 211.054688 218.929688 " fill-opacity="1" fill-rule="nonzero"/></g></g></g><g clip-path="url(#clip-87)"><g clip-path="url(#clip-88)"><g clip-path="url(#clip-89)"><path fill="rgb(100%, 100%, 100%)" d="M 568.449219 214.046875 C 564.71875 230.164062 574.753906 246.246094 590.867188 249.976562 C 591.429688 250.105469 591.992188 250.234375 592.605469 250.335938 C 595.863281 250.878906 599.117188 250.910156 602.238281 250.40625 C 603.523438 252.902344 605.003906 255.28125 606.683594 257.53125 C 613.21875 266.242188 622.746094 272.808594 634.199219 275.457031 C 644.242188 277.78125 654.296875 276.765625 663.1875 273.105469 C 665.261719 274.390625 667.460938 275.492188 669.738281 276.441406 C 672.207031 277.480469 674.773438 278.285156 677.464844 278.90625 C 685.902344 280.859375 694.339844 280.441406 702.109375 278.132812 C 705.472656 277.132812 708.671875 275.753906 711.734375 274.046875 C 715.816406 279.269531 721.636719 283.199219 728.585938 284.808594 C 739.957031 287.441406 751.308594 283.207031 758.324219 274.835938 C 761.253906 271.320312 763.410156 267.121094 764.507812 262.378906 C 768.238281 246.261719 758.203125 230.175781 742.089844 226.449219 C 741.972656 226.421875 741.851562 226.394531 741.730469 226.367188 C 744.046875 202.636719 728.550781 180.335938 704.765625 174.832031 C 689.699219 171.34375 674.625 175.394531 663.539062 184.515625 C 661.070312 183.480469 658.503906 182.675781 655.8125 182.050781 C 639.339844 178.238281 622.90625 183.414062 611.613281 194.351562 C 609.390625 193.160156 606.933594 192.25 604.363281 191.65625 C 588.851562 188.066406 573.359375 197.226562 568.890625 212.328125 C 568.761719 212.890625 568.589844 213.441406 568.449219 214.046875 Z M 568.449219 214.046875 " fill-opacity="1" fill-rule="nonzero"/></g></g></g><g clip-path="url(#clip-90)"><g clip-path="url(#clip-91)"><g clip-path="url(#clip-92)"><path fill="rgb(100%, 100%, 100%)" d="M 875.636719 188.367188 C 872.980469 172.035156 857.601562 160.957031 841.277344 163.609375 C 840.707031 163.703125 840.136719 163.796875 839.535156 163.9375 C 836.3125 164.667969 833.289062 165.871094 830.589844 167.523438 C 828.457031 165.695312 826.183594 164.058594 823.777344 162.613281 C 814.429688 157.027344 803.121094 154.5625 791.523438 156.449219 C 781.34375 158.105469 772.425781 162.855469 765.585938 169.613281 C 763.179688 169.210938 760.726562 169.023438 758.257812 169.007812 C 755.582031 168.980469 752.902344 169.210938 750.175781 169.652344 C 741.628906 171.042969 733.980469 174.628906 727.660156 179.710938 C 724.929688 181.910156 722.492188 184.394531 720.304688 187.132812 C 714.546875 183.847656 707.671875 182.417969 700.628906 183.5625 C 689.109375 185.4375 680.210938 193.65625 676.890625 204.0625 C 675.511719 208.421875 675.105469 213.128906 675.886719 217.933594 C 678.542969 234.261719 693.925781 245.34375 710.246094 242.6875 C 710.371094 242.667969 710.492188 242.648438 710.613281 242.628906 C 717.460938 265.464844 740.253906 280.230469 764.351562 276.3125 C 779.613281 273.828125 792.03125 264.367188 798.832031 251.726562 C 801.507812 251.75 804.1875 251.523438 806.914062 251.082031 C 823.605469 248.367188 836.851562 237.347656 843.160156 222.949219 C 845.667969 223.210938 848.285156 223.117188 850.890625 222.695312 C 866.601562 220.136719 877.46875 205.789062 875.882812 190.121094 C 875.789062 189.554688 875.738281 188.976562 875.636719 188.367188 Z M 875.636719 188.367188 " fill-opacity="1" fill-rule="nonzero"/></g></g></g><g clip-path="url(#clip-93)"><g clip-path="url(#clip-94)"><g clip-path="url(#clip-95)"><path fill="rgb(100%, 100%, 100%)" d="M 616.453125 256.996094 C 623.902344 242.226562 617.976562 224.21875 603.210938 216.769531 C 602.699219 216.507812 602.183594 216.25 601.609375 216.007812 C 598.574219 214.703125 595.421875 213.902344 592.269531 213.648438 C 591.613281 210.917969 590.738281 208.257812 589.644531 205.671875 C 585.363281 195.65625 577.667969 187.015625 567.175781 181.722656 C 557.96875 177.078125 547.960938 175.679688 538.457031 177.121094 C 536.746094 175.382812 534.871094 173.789062 532.886719 172.324219 C 530.734375 170.730469 528.433594 169.339844 525.964844 168.09375 C 518.234375 164.195312 509.941406 162.597656 501.839844 162.992188 C 498.335938 163.164062 494.902344 163.746094 491.523438 164.671875 C 488.800781 158.632812 484.078125 153.429688 477.710938 150.21875 C 467.289062 144.960938 455.257812 146.378906 446.453125 152.839844 C 442.773438 155.558594 439.679688 159.125 437.488281 163.472656 C 430.035156 178.242188 435.964844 196.25 450.726562 203.699219 C 450.839844 203.753906 450.949219 203.808594 451.058594 203.867188 C 443.171875 226.363281 452.929688 251.707031 474.722656 262.707031 C 488.53125 269.671875 504.136719 269.320312 517.070312 263.089844 C 519.222656 264.683594 521.523438 266.078125 523.992188 267.320312 C 539.085938 274.9375 556.28125 273.816406 569.847656 265.875 C 571.722656 267.558594 573.894531 269.023438 576.25 270.210938 C 590.460938 277.382812 607.691406 272.164062 615.617188 258.558594 C 615.878906 258.042969 616.175781 257.546875 616.453125 256.996094 Z M 616.453125 256.996094 " fill-opacity="1" fill-rule="nonzero"/></g></g></g><g clip-path="url(#clip-96)"><g clip-path="url(#clip-97)"><g clip-path="url(#clip-98)"><path fill="rgb(100%, 100%, 100%)" d="M 827.46875 208.335938 C 829.386719 224.769531 844.253906 236.53125 860.679688 234.617188 C 861.25 234.550781 861.824219 234.480469 862.433594 234.371094 C 865.6875 233.78125 868.761719 232.71875 871.53125 231.191406 C 873.582031 233.109375 875.777344 234.847656 878.117188 236.402344 C 887.203125 242.402344 898.386719 245.375 910.0625 244.011719 C 920.300781 242.816406 929.425781 238.472656 936.5625 232.03125 C 938.949219 232.542969 941.390625 232.839844 943.855469 232.964844 C 946.53125 233.109375 949.214844 233.003906 951.960938 232.683594 C 960.5625 231.679688 968.363281 228.445312 974.90625 223.652344 C 977.734375 221.578125 980.28125 219.203125 982.589844 216.566406 C 988.191406 220.109375 994.996094 221.847656 1002.082031 221.019531 C 1013.675781 219.667969 1022.9375 211.859375 1026.722656 201.613281 C 1028.296875 197.316406 1028.914062 192.636719 1028.347656 187.800781 C 1026.429688 171.367188 1011.566406 159.605469 995.140625 161.523438 C 995.015625 161.535156 994.894531 161.550781 994.769531 161.566406 C 988.957031 138.445312 966.855469 122.664062 942.605469 125.496094 C 927.246094 127.289062 914.417969 136.179688 907.050781 148.503906 C 904.378906 148.355469 901.691406 148.464844 898.949219 148.785156 C 882.152344 150.742188 868.421875 161.152344 861.472656 175.253906 C 858.980469 174.878906 856.359375 174.851562 853.738281 175.160156 C 837.929688 177.003906 826.425781 190.847656 827.304688 206.570312 C 827.371094 207.144531 827.398438 207.722656 827.46875 208.335938 Z M 827.46875 208.335938 " fill-opacity="1" fill-rule="nonzero"/></g></g></g><g mask="url(#mask-9)"><g transform="matrix(1, 0, 0, 1, 286, 129)"><g id="source-32" clip-path="url(#clip-100)"><g clip-path="url(#clip-99)"><path fill="rgb(100%, 100%, 100%)" d="M 1.25 85.402344 C 1.25 105.628906 17.589844 122.027344 37.753906 122.027344 C 38.460938 122.027344 39.164062 122.027344 39.917969 121.976562 C 43.941406 121.722656 47.8125 120.867188 51.382812 119.402344 C 53.59375 122.027344 56.007812 124.445312 58.625 126.667969 C 68.78125 135.242188 81.90625 140.4375 96.234375 140.4375 C 108.808594 140.4375 120.472656 136.453125 130.027344 129.644531 C 132.84375 130.601562 135.757812 131.308594 138.726562 131.8125 C 141.945312 132.367188 145.210938 132.621094 148.582031 132.621094 C 159.140625 132.621094 169.046875 129.792969 177.644531 124.902344 C 181.367188 122.78125 184.785156 120.261719 187.953125 117.382812 C 194.238281 122.480469 202.234375 125.558594 210.933594 125.558594 C 225.164062 125.558594 237.484375 117.382812 243.519531 105.480469 C 246.03125 100.484375 247.441406 94.886719 247.441406 88.933594 C 247.441406 68.703125 231.097656 52.308594 210.933594 52.308594 C 210.785156 52.308594 210.632812 52.308594 210.480469 52.308594 C 206.710938 23.402344 182.171875 1.105469 152.402344 1.105469 C 133.546875 1.105469 116.75 10.085938 106.089844 24.007812 C 102.875 23.453125 99.605469 23.199219 96.234375 23.199219 C 75.621094 23.199219 57.515625 33.894531 47.109375 50.039062 C 44.140625 49.230469 40.972656 48.828125 37.753906 48.828125 C 18.34375 48.828125 2.457031 64.011719 1.300781 83.230469 C 1.300781 83.9375 1.25 84.644531 1.25 85.402344 Z M 1.25 85.402344 " fill-opacity="1" fill-rule="nonzero"/></g></g></g></g><g mask="url(#mask-10)"><g transform="matrix(1, 0, 0, 1, 370, 127)"><g id="source-35" clip-path="url(#clip-102)"><g clip-path="url(#clip-101)"><path fill="rgb(100%, 100%, 100%)" d="M 0.605469 84.421875 C 0.605469 104.652344 16.949219 121.046875 37.113281 121.046875 C 37.816406 121.046875 38.519531 121.046875 39.273438 120.996094 C 43.296875 120.742188 47.167969 119.886719 50.738281 118.421875 C 52.953125 121.046875 55.367188 123.46875 57.980469 125.6875 C 68.136719 134.261719 81.261719 139.460938 95.59375 139.460938 C 108.164062 139.460938 119.828125 135.472656 129.382812 128.664062 C 132.199219 129.621094 135.117188 130.328125 138.082031 130.832031 C 141.300781 131.386719 144.570312 131.640625 147.9375 131.640625 C 158.5 131.640625 168.40625 128.816406 177.003906 123.921875 C 180.722656 121.804688 184.144531 119.28125 187.3125 116.40625 C 193.597656 121.5 201.59375 124.578125 210.292969 124.578125 C 224.523438 124.578125 236.839844 116.40625 242.875 104.5 C 245.390625 99.503906 246.796875 93.90625 246.796875 87.953125 C 246.796875 67.722656 230.457031 51.328125 210.292969 51.328125 C 210.140625 51.328125 209.988281 51.328125 209.839844 51.328125 C 206.066406 22.421875 181.527344 0.125 151.761719 0.125 C 132.902344 0.125 116.109375 9.105469 105.449219 23.027344 C 102.230469 22.472656 98.960938 22.222656 95.59375 22.222656 C 74.976562 22.222656 56.875 32.914062 46.464844 49.058594 C 43.5 48.25 40.332031 47.847656 37.113281 47.847656 C 17.703125 47.847656 1.8125 63.03125 0.65625 82.253906 C 0.65625 82.957031 0.605469 83.664062 0.605469 84.421875 Z M 0.605469 84.421875 " fill-opacity="1" fill-rule="nonzero"/></g></g></g></g><g clip-path="url(#clip-103)"><g clip-path="url(#clip-104)"><g clip-path="url(#clip-105)"><path fill="rgb(77.249146%, 67.83905%, 92.158508%)" d="M 686.316406 162.011719 L 691.769531 170.566406 L 701.925781 170.933594 L 695.449219 178.761719 L 698.242188 188.511719 L 688.789062 184.789062 L 680.34375 190.453125 L 680.972656 180.328125 L 672.976562 174.074219 L 682.820312 171.539062 Z M 686.316406 162.011719 " fill-opacity="1" fill-rule="nonzero"/></g></g></g><g clip-path="url(#clip-106)"><g clip-path="url(#clip-107)"><g clip-path="url(#clip-108)"><path fill="rgb(77.249146%, 67.83905%, 92.158508%)" d="M 686.238281 161.933594 L 691.695312 170.488281 L 701.851562 170.851562 L 695.378906 178.679688 L 698.164062 188.429688 L 688.707031 184.710938 L 680.269531 190.371094 L 680.902344 180.25 L 672.898438 173.992188 L 682.742188 171.457031 Z M 686.238281 161.933594 " fill-opacity="1" fill-rule="nonzero"/><path fill="rgb(77.249146%, 67.83905%, 92.158508%)" d="M 686.238281 161.933594 L 691.695312 170.488281 L 701.851562 170.851562 L 695.378906 178.679688 L 698.164062 188.429688 L 688.707031 184.710938 L 680.269531 190.371094 L 680.902344 180.25 L 672.898438 173.992188 L 682.742188 171.457031 Z M 686.238281 161.933594 " fill-opacity="1" fill-rule="nonzero"/><path fill="rgb(77.249146%, 67.83905%, 92.158508%)" d="M 686.238281 161.933594 L 691.695312 170.488281 L 701.851562 170.851562 L 695.378906 178.679688 L 698.164062 188.429688 L 688.707031 184.710938 L 680.269531 190.371094 L 680.902344 180.25 L 672.898438 173.992188 L 682.742188 171.457031 Z M 686.238281 161.933594 " fill-opacity="1" fill-rule="nonzero"/></g></g></g><g clip-path="url(#clip-109)"><g clip-path="url(#clip-110)"><g clip-path="url(#clip-111)"><path fill="rgb(100%, 100%, 100%)" d="M 572.171875 235.824219 C 569.089844 241.585938 565.878906 243.304688 564.785156 243.753906 C 564.613281 243.824219 564.566406 244.027344 564.695312 244.160156 C 565.488281 245.007812 567.679688 247.929688 568.085938 254.457031 C 568.097656 254.707031 568.433594 254.78125 568.550781 254.558594 C 571.601562 248.789062 574.910156 247.09375 576.039062 246.648438 C 576.210938 246.582031 576.261719 246.363281 576.132812 246.226562 C 575.289062 245.371094 572.996094 242.425781 572.644531 235.910156 C 572.628906 235.660156 572.296875 235.585938 572.171875 235.824219 Z M 572.171875 235.824219 " fill-opacity="1" fill-rule="nonzero"/></g></g></g><g clip-path="url(#clip-112)"><g clip-path="url(#clip-113)"><g clip-path="url(#clip-114)"><path fill="rgb(100%, 100%, 100%)" d="M 554.703125 233.214844 C 549.5625 242.679688 544.175781 245.484375 542.335938 246.21875 C 542.046875 246.328125 541.976562 246.660156 542.191406 246.882812 C 543.535156 248.285156 547.242188 253.113281 547.976562 263.867188 C 548.003906 264.28125 548.5625 264.402344 548.761719 264.039062 C 553.847656 254.5625 559.402344 251.796875 561.296875 251.078125 C 561.585938 250.964844 561.664062 250.605469 561.449219 250.382812 C 560.023438 248.964844 556.144531 244.097656 555.496094 233.363281 C 555.46875 232.949219 554.90625 232.824219 554.703125 233.214844 Z M 554.703125 233.214844 " fill-opacity="1" fill-rule="nonzero"/></g></g></g></svg>